M48
;GenerationSoftware,Autodesk,EAGLE,9.6.2*%
;CreationDate,2021-11-15T22:35:19Z*%
FMAT,2
ICI,OFF
METRIC,TZ,000.000
T5C0.350
T4C1.000
T3C1.016
T2C1.500
T1C1.800
%
G90
M71
T1
X30903Y2829
X25453Y2829
T2
X30603Y5859
X25753Y5859
T3
X6826Y28099
X6826Y30639
X9366Y33179
X6826Y33179
X9366Y35719
X6826Y35719
X9366Y38259
X6826Y38259
X9366Y40799
X6826Y40799
X9366Y30639
X9366Y43339
X6826Y43339
X9366Y45879
X6826Y45879
X9366Y48419
X6826Y48419
X9366Y50959
X6826Y50959
X6747Y54372
X9287Y54372
X50721Y19209
X53261Y19209
X50721Y16669
X53261Y16669
X50721Y14129
X53261Y14129
X50721Y11589
X53261Y11589
X50721Y9049
X50721Y6509
X53261Y6509
X50800Y48736
X53340Y48736
X50800Y46196
X53340Y46196
X50800Y43656
X53340Y43656
X50800Y41116
X9366Y12859
X53340Y41116
X50800Y38576
X53340Y38576
X50800Y36036
X53340Y36036
X9366Y2699
X6826Y2699
X9366Y5239
X6826Y5239
X9366Y7779
X6826Y7779
X9366Y10319
X6826Y10319
X53261Y9049
X6826Y12859
X9366Y15399
X6826Y15399
X9366Y17939
X6826Y17939
X9366Y20479
X6826Y20479
X9366Y23019
X6826Y23019
X9366Y25559
X6826Y25559
X9366Y28099
T4
X37068Y23019
X19288Y45879
X37068Y2699
X37068Y5239
X37068Y17939
X37068Y20479
X37068Y7779
X37068Y10319
X37068Y15399
X37068Y12859
X37068Y25559
X37068Y28099
X37068Y30639
X37068Y33179
X37068Y35719
X37068Y38259
X37068Y40799
X37068Y43339
X37068Y45879
X37068Y48419
X37068Y50959
X19288Y50959
X19288Y48419
X19288Y43339
X19288Y40799
X19288Y38259
X19288Y35719
X19288Y33179
X19288Y30639
X19288Y28099
X19288Y25559
X19288Y23019
X19288Y20479
X19288Y17939
X19288Y15399
X19288Y12859
X19288Y10319
X19288Y5239
X19288Y2699
X30718Y50729
X28178Y50729
X25638Y50729
X19288Y7779
T5
X15059Y45148
X41018Y24232
M30