G04 EAGLE Gerber RS-274X export*
G75*
%MOMM*%
%FSLAX34Y34*%
%LPD*%
%IN*%
%IPPOS*%
%AMOC8*
5,1,8,0,0,1.08239X$1,22.5*%
G01*
%ADD10C,0.254000*%


D10*
X0Y12700D02*
X48Y11593D01*
X193Y10495D01*
X433Y9413D01*
X766Y8356D01*
X1190Y7333D01*
X1701Y6350D01*
X2297Y5416D01*
X2971Y4537D01*
X3720Y3720D01*
X4537Y2971D01*
X5416Y2297D01*
X6350Y1701D01*
X7333Y1190D01*
X8356Y766D01*
X9413Y433D01*
X10495Y193D01*
X11593Y48D01*
X12700Y0D01*
X563563Y0D01*
X564669Y48D01*
X565768Y193D01*
X566850Y433D01*
X567906Y766D01*
X568930Y1190D01*
X569913Y1701D01*
X570847Y2297D01*
X571726Y2971D01*
X572543Y3720D01*
X573291Y4537D01*
X573966Y5416D01*
X574561Y6350D01*
X575073Y7333D01*
X575497Y8356D01*
X575830Y9413D01*
X576070Y10495D01*
X576214Y11593D01*
X576263Y12700D01*
X576263Y557213D01*
X576214Y558319D01*
X576070Y559418D01*
X575830Y560500D01*
X575497Y561556D01*
X575073Y562580D01*
X574561Y563563D01*
X573966Y564497D01*
X573291Y565376D01*
X572543Y566193D01*
X571726Y566941D01*
X570847Y567616D01*
X569913Y568211D01*
X568930Y568723D01*
X567906Y569147D01*
X566850Y569480D01*
X565768Y569720D01*
X564669Y569864D01*
X563563Y569913D01*
X12700Y569913D01*
X11593Y569864D01*
X10495Y569720D01*
X9413Y569480D01*
X8356Y569147D01*
X7333Y568723D01*
X6350Y568211D01*
X5416Y567616D01*
X4537Y566941D01*
X3720Y566193D01*
X2971Y565376D01*
X2297Y564497D01*
X1701Y563563D01*
X1190Y562580D01*
X766Y561556D01*
X433Y560500D01*
X193Y559418D01*
X48Y558319D01*
X0Y557213D01*
X0Y12700D01*
X300031Y28680D02*
X300100Y29463D01*
X300236Y30237D01*
X300440Y30996D01*
X300708Y31735D01*
X301041Y32447D01*
X301434Y33128D01*
X301884Y33772D01*
X302389Y34374D01*
X302945Y34929D01*
X303547Y35434D01*
X304191Y35885D01*
X304872Y36278D01*
X305584Y36610D01*
X306322Y36879D01*
X307081Y37083D01*
X307855Y37219D01*
X308638Y37288D01*
X309424Y37288D01*
X310207Y37219D01*
X310981Y37083D01*
X311740Y36879D01*
X312479Y36610D01*
X313191Y36278D01*
X313872Y35885D01*
X314515Y35434D01*
X315117Y34929D01*
X315673Y34374D01*
X316178Y33772D01*
X316629Y33128D01*
X317022Y32447D01*
X317354Y31735D01*
X317623Y30996D01*
X317826Y30237D01*
X317963Y29463D01*
X318031Y28680D01*
X318031Y27895D01*
X317963Y27112D01*
X317826Y26338D01*
X317623Y25579D01*
X317354Y24840D01*
X317022Y24128D01*
X316629Y23447D01*
X316178Y22803D01*
X315673Y22201D01*
X315117Y21646D01*
X314515Y21141D01*
X313872Y20690D01*
X313191Y20297D01*
X312479Y19965D01*
X311740Y19696D01*
X310981Y19492D01*
X310207Y19356D01*
X309424Y19288D01*
X308638Y19288D01*
X307855Y19356D01*
X307081Y19492D01*
X306322Y19696D01*
X305584Y19965D01*
X304872Y20297D01*
X304191Y20690D01*
X303547Y21141D01*
X302945Y21646D01*
X302389Y22201D01*
X301884Y22803D01*
X301434Y23447D01*
X301041Y24128D01*
X300708Y24840D01*
X300440Y25579D01*
X300236Y26338D01*
X300100Y27112D01*
X300031Y27895D01*
X300031Y28680D01*
X245531Y28680D02*
X245600Y29463D01*
X245736Y30237D01*
X245940Y30996D01*
X246208Y31735D01*
X246541Y32447D01*
X246934Y33128D01*
X247384Y33772D01*
X247889Y34374D01*
X248445Y34929D01*
X249047Y35434D01*
X249691Y35885D01*
X250372Y36278D01*
X251084Y36610D01*
X251822Y36879D01*
X252581Y37083D01*
X253355Y37219D01*
X254138Y37288D01*
X254924Y37288D01*
X255707Y37219D01*
X256481Y37083D01*
X257240Y36879D01*
X257979Y36610D01*
X258691Y36278D01*
X259372Y35885D01*
X260015Y35434D01*
X260617Y34929D01*
X261173Y34374D01*
X261678Y33772D01*
X262129Y33128D01*
X262522Y32447D01*
X262854Y31735D01*
X263123Y30996D01*
X263326Y30237D01*
X263463Y29463D01*
X263531Y28680D01*
X263531Y27895D01*
X263463Y27112D01*
X263326Y26338D01*
X263123Y25579D01*
X262854Y24840D01*
X262522Y24128D01*
X262129Y23447D01*
X261678Y22803D01*
X261173Y22201D01*
X260617Y21646D01*
X260015Y21141D01*
X259372Y20690D01*
X258691Y20297D01*
X257979Y19965D01*
X257240Y19696D01*
X256481Y19492D01*
X255707Y19356D01*
X254924Y19288D01*
X254138Y19288D01*
X253355Y19356D01*
X252581Y19492D01*
X251822Y19696D01*
X251084Y19965D01*
X250372Y20297D01*
X249691Y20690D01*
X249047Y21141D01*
X248445Y21646D01*
X247889Y22201D01*
X247384Y22803D01*
X246934Y23447D01*
X246541Y24128D01*
X246208Y24840D01*
X245940Y25579D01*
X245736Y26338D01*
X245600Y27112D01*
X245531Y27895D01*
X245531Y28680D01*
X298531Y58956D02*
X298603Y59689D01*
X298747Y60412D01*
X298961Y61117D01*
X299243Y61798D01*
X299591Y62448D01*
X300000Y63061D01*
X300467Y63630D01*
X300988Y64151D01*
X301558Y64619D01*
X302171Y65028D01*
X302821Y65376D01*
X303502Y65658D01*
X304207Y65872D01*
X304929Y66015D01*
X305663Y66088D01*
X306400Y66088D01*
X307133Y66015D01*
X307856Y65872D01*
X308561Y65658D01*
X309242Y65376D01*
X309892Y65028D01*
X310504Y64619D01*
X311074Y64151D01*
X311595Y63630D01*
X312063Y63061D01*
X312472Y62448D01*
X312819Y61798D01*
X313101Y61117D01*
X313315Y60412D01*
X313459Y59689D01*
X313531Y58956D01*
X313531Y58219D01*
X313459Y57486D01*
X313315Y56763D01*
X313101Y56058D01*
X312819Y55377D01*
X312472Y54727D01*
X312063Y54114D01*
X311595Y53545D01*
X311074Y53024D01*
X310504Y52556D01*
X309892Y52147D01*
X309242Y51799D01*
X308561Y51517D01*
X307856Y51304D01*
X307133Y51160D01*
X306400Y51088D01*
X305663Y51088D01*
X304929Y51160D01*
X304207Y51304D01*
X303502Y51517D01*
X302821Y51799D01*
X302171Y52147D01*
X301558Y52556D01*
X300988Y53024D01*
X300467Y53545D01*
X300000Y54114D01*
X299591Y54727D01*
X299243Y55377D01*
X298961Y56058D01*
X298747Y56763D01*
X298603Y57486D01*
X298531Y58219D01*
X298531Y58956D01*
X250031Y58956D02*
X250103Y59689D01*
X250247Y60412D01*
X250461Y61117D01*
X250743Y61798D01*
X251091Y62448D01*
X251500Y63061D01*
X251967Y63630D01*
X252488Y64151D01*
X253058Y64619D01*
X253671Y65028D01*
X254321Y65376D01*
X255002Y65658D01*
X255707Y65872D01*
X256429Y66015D01*
X257163Y66088D01*
X257900Y66088D01*
X258633Y66015D01*
X259356Y65872D01*
X260061Y65658D01*
X260742Y65376D01*
X261392Y65028D01*
X262004Y64619D01*
X262574Y64151D01*
X263095Y63630D01*
X263563Y63061D01*
X263972Y62448D01*
X264319Y61798D01*
X264601Y61117D01*
X264815Y60412D01*
X264959Y59689D01*
X265031Y58956D01*
X265031Y58219D01*
X264959Y57486D01*
X264815Y56763D01*
X264601Y56058D01*
X264319Y55377D01*
X263972Y54727D01*
X263563Y54114D01*
X263095Y53545D01*
X262574Y53024D01*
X262004Y52556D01*
X261392Y52147D01*
X260742Y51799D01*
X260061Y51517D01*
X259356Y51304D01*
X258633Y51160D01*
X257900Y51088D01*
X257163Y51088D01*
X256429Y51160D01*
X255707Y51304D01*
X255002Y51517D01*
X254321Y51799D01*
X253671Y52147D01*
X253058Y52556D01*
X252488Y53024D01*
X251967Y53545D01*
X251500Y54114D01*
X251091Y54727D01*
X250743Y55377D01*
X250461Y56058D01*
X250247Y56763D01*
X250103Y57486D01*
X250031Y58219D01*
X250031Y58956D01*
M02*
