G04 EAGLE Gerber RS-274X export*
G75*
%MOMM*%
%FSLAX34Y34*%
%LPD*%
%INSoldermask Bottom*%
%IPPOS*%
%AMOC8*
5,1,8,0,0,1.08239X$1,22.5*%
G01*
%ADD10C,1.711200*%
%ADD11C,2.003200*%
%ADD12C,1.703200*%
%ADD13P,1.869504X8X112.500000*%
%ADD14C,1.879600*%
%ADD15P,2.034460X8X292.500000*%
%ADD16C,0.959600*%


D10*
X370681Y26988D03*
X370681Y52388D03*
X370681Y179388D03*
X370681Y204788D03*
X370681Y77788D03*
X370681Y103188D03*
X370681Y153988D03*
X370681Y128588D03*
X370681Y230188D03*
X370681Y255588D03*
X370681Y280988D03*
X370681Y306388D03*
X370681Y331788D03*
X370681Y357188D03*
X370681Y382588D03*
X370681Y407988D03*
X370681Y433388D03*
X370681Y458788D03*
X370681Y484188D03*
X370681Y509588D03*
X192881Y509588D03*
X192881Y484188D03*
X192881Y458788D03*
X192881Y433388D03*
X192881Y407988D03*
X192881Y382588D03*
X192881Y357188D03*
X192881Y331788D03*
X192881Y306388D03*
X192881Y280988D03*
X192881Y255588D03*
X192881Y230188D03*
X192881Y204788D03*
X192881Y179388D03*
X192881Y153988D03*
X192881Y128588D03*
X192881Y103188D03*
X192881Y77788D03*
X192881Y52388D03*
X192881Y26988D03*
D11*
X309031Y28288D03*
X254531Y28288D03*
D12*
X306031Y58588D03*
X257531Y58588D03*
D10*
X307181Y507288D03*
X281781Y507288D03*
X256381Y507288D03*
D13*
X93663Y26988D03*
X68263Y26988D03*
X93663Y52388D03*
X68263Y52388D03*
X93663Y77788D03*
X68263Y77788D03*
X93663Y103188D03*
X68263Y103188D03*
X93663Y128588D03*
X68263Y128588D03*
X93663Y153988D03*
X68263Y153988D03*
X93663Y179388D03*
X68263Y179388D03*
X93663Y204788D03*
X68263Y204788D03*
X93663Y230188D03*
X68263Y230188D03*
X93663Y255588D03*
X68263Y255588D03*
X93663Y280988D03*
X68263Y280988D03*
X93663Y306388D03*
X68263Y306388D03*
X93663Y331788D03*
X68263Y331788D03*
X93663Y357188D03*
X68263Y357188D03*
X93663Y382588D03*
X68263Y382588D03*
X93663Y407988D03*
X68263Y407988D03*
X93663Y433388D03*
X68263Y433388D03*
X93663Y458788D03*
X68263Y458788D03*
X93663Y484188D03*
X68263Y484188D03*
X93663Y509588D03*
X68263Y509588D03*
D14*
X67469Y543719D03*
X92869Y543719D03*
D15*
X507206Y192088D03*
X532606Y192088D03*
X507206Y166688D03*
X532606Y166688D03*
X507206Y141288D03*
X532606Y141288D03*
X507206Y115888D03*
X532606Y115888D03*
X507206Y90488D03*
X532606Y90488D03*
X507206Y65088D03*
X532606Y65088D03*
X508000Y487363D03*
X533400Y487363D03*
X508000Y461963D03*
X533400Y461963D03*
X508000Y436563D03*
X533400Y436563D03*
X508000Y411163D03*
X533400Y411163D03*
X508000Y385763D03*
X533400Y385763D03*
X508000Y360363D03*
X533400Y360363D03*
D16*
X410178Y242316D03*
X150590Y451485D03*
M02*
